<?xml version="1.0" standalone="no"?>
<!DOCTYPE svg PUBLIC "-//W3C//DTD SVG 20010904//EN"
 "http://www.w3.org/TR/2001/REC-SVG-20010904/DTD/svg10.dtd">
<svg version="1.0" xmlns="http://www.w3.org/2000/svg"
 width="640.000000pt" height="640.000000pt" viewBox="0 0 640.000000 640.000000"
 preserveAspectRatio="xMidYMid meet">
<metadata>
Created by potrace 1.11, written by Peter Selinger 2001-2013
</metadata>
<g transform="translate(0.000000,640.000000) scale(0.100000,-0.100000)"
fill="#000000" stroke="none">
<path d="M0 3200 l0 -3200 3200 0 3200 0 0 3200 0 3200 -3200 0 -3200 0 0
-3200z m791 2442 c70 -62 24 -172 -72 -172 -57 0 -99 42 -99 100 0 91 102 133
171 72z m954 -223 c162 -44 197 -254 58 -349 -62 -42 -166 -37 -228 12 -61 48
-87 166 -52 234 21 41 80 92 115 100 15 3 32 7 37 9 18 6 29 5 70 -6z m1613
-46 c-26 -2 -71 -2 -100 0 -29 2 -8 3 47 3 55 0 79 -1 53 -3z m140 -10 c-10
-2 -28 -2 -40 0 -13 2 -5 4 17 4 22 1 32 -1 23 -4z m127 -14 c20 -5 9 -6 -30
-2 -33 3 -62 7 -64 9 -8 7 63 2 94 -7z m72 -15 c-3 -3 -12 -4 -19 -1 -8 3 -5
6 6 6 11 1 17 -2 13 -5z m50 -10 c-3 -3 -12 -4 -19 -1 -8 3 -5 6 6 6 11 1 17
-2 13 -5z m40 -10 c-3 -3 -12 -4 -19 -1 -8 3 -5 6 6 6 11 1 17 -2 13 -5z m40
-10 c-3 -3 -12 -4 -19 -1 -8 3 -5 6 6 6 11 1 17 -2 13 -5z m58 -14 c13 -5 14
-9 5 -9 -8 0 -24 4 -35 9 -13 5 -14 9 -5 9 8 0 24 -4 35 -9z m175 -60 c8 -5
11 -10 5 -10 -5 0 -17 5 -25 10 -8 5 -10 10 -5 10 6 0 17 -5 25 -10z m1258
-101 c207 -56 413 -111 457 -123 l80 -21 3 -78 3 -78 -576 -584 c-317 -321
-576 -587 -576 -592 0 -4 84 -30 186 -58 l185 -50 0 -175 0 -175 -174 -174
-174 -174 -5 -706 c-4 -605 -7 -716 -21 -774 -9 -38 -23 -78 -32 -90 -12 -16
-15 -17 -11 -5 4 12 -105 199 -339 580 -191 310 -348 565 -351 568 -2 2 -39
-32 -83 -75 l-79 -80 65 -104 65 -105 -365 -365 -365 -365 -132 36 -133 36
-75 -52 c-108 -74 -299 -207 -418 -292 -57 -40 -103 -71 -103 -69 0 4 63 110
212 354 l87 143 0 176 1 177 277 277 278 278 -115 0 -115 0 -195 -195 -195
-195 -105 31 c-58 17 -123 35 -146 41 l-41 11 -277 -219 c-152 -121 -520 -411
-817 -646 -296 -235 -539 -425 -539 -422 0 3 13 22 29 42 16 20 201 269 410
552 577 780 616 833 619 841 2 5 -12 12 -30 17 l-33 8 -5 133 -5 132 -30 -31
c-16 -18 -150 -149 -297 -292 l-267 -259 -130 34 -130 35 -298 -212 c-164
-117 -304 -216 -311 -220 -7 -4 23 51 68 123 44 72 116 190 161 262 l80 131 6
177 6 176 361 362 c198 200 362 366 363 370 2 5 -174 52 -390 107 -215 54
-397 100 -402 103 -12 4 -116 -97 -145 -142 l-20 -30 38 -12 37 -12 -35 5
c-19 4 -39 9 -43 13 -12 12 75 120 140 175 83 69 142 96 389 174 120 38 361
115 534 170 173 56 394 126 489 156 l175 55 181 181 180 180 283 -76 282 -77
0 -166 0 -166 538 536 537 537 207 77 c114 43 206 81 203 85 -2 4 6 5 18 3 12
-2 125 35 257 85 129 50 241 90 248 91 7 1 182 -45 390 -100z m-1198 76 c14
-8 21 -14 15 -14 -5 0 -21 6 -35 14 -14 8 -20 14 -15 14 6 0 21 -6 35 -14z
m120 -55 c44 -22 80 -42 80 -45 0 -5 -159 72 -169 81 -13 12 19 -1 89 -36z
m-3110 -120 l0 -70 75 0 75 0 0 -40 0 -39 -72 -3 -73 -3 -3 -72 -3 -73 -39 0
-40 0 0 75 0 75 -70 0 -70 0 0 40 0 40 70 0 70 0 0 70 0 70 40 0 40 0 0 -70z
m3260 34 c0 -2 -13 2 -30 11 -16 9 -30 18 -30 21 0 2 14 -2 30 -11 17 -9 30
-18 30 -21z m875 -1000 c20 -47 35 -88 33 -90 -4 -3 -33 62 -76 168 -2 4 -2 8
1 8 3 0 21 -39 42 -86z m64 -166 c12 -34 21 -67 20 -72 0 -6 -8 12 -18 39 -27
76 -33 95 -28 95 3 0 15 -28 26 -62z m28 -110 c-3 -8 -6 -5 -6 6 -1 11 2 17 5
13 3 -3 4 -12 1 -19z m31 -113 c0 -16 -2 -15 -8 5 -4 14 -8 34 -8 45 0 16 2
15 8 -5 4 -14 8 -34 8 -45z m9 -57 c-3 -7 -5 -2 -5 12 0 14 2 19 5 13 2 -7 2
-19 0 -25z m10 -60 c-3 -7 -5 -2 -5 12 0 14 2 19 5 13 2 -7 2 -19 0 -25z m10
-65 c-3 -10 -5 -2 -5 17 0 19 2 27 5 18 2 -10 2 -26 0 -35z m10 -75 c-2 -13
-4 -5 -4 17 -1 22 1 32 4 23 2 -10 2 -28 0 -40z m10 -295 c-1 -43 -3 -8 -3 77
0 85 2 120 3 78 2 -43 2 -113 0 -155z m-5012 52 c54 -17 33 -18 -30 -1 -27 8
-41 14 -30 14 11 0 38 -5 60 -13z m72 -21 c-3 -3 -12 -4 -19 -1 -8 3 -5 6 6 6
11 1 17 -2 13 -5z m68 -14 c25 -11 -1 -11 -35 0 -20 6 -21 8 -5 8 11 0 29 -3
40 -8z m52 -16 c-3 -3 -12 -4 -19 -1 -8 3 -5 6 6 6 11 1 17 -2 13 -5z m68 -14
c25 -11 -1 -11 -35 0 -20 6 -21 8 -5 8 11 0 29 -3 40 -8z m52 -16 c-3 -3 -12
-4 -19 -1 -8 3 -5 6 6 6 11 1 17 -2 13 -5z m40 -10 c-3 -3 -12 -4 -19 -1 -8 3
-5 6 6 6 11 1 17 -2 13 -5z m40 -10 c-3 -3 -12 -4 -19 -1 -8 3 -5 6 6 6 11 1
17 -2 13 -5z m63 -14 c20 -6 21 -8 5 -8 -11 0 -29 3 -40 8 -25 11 1 11 35 0z
m57 -16 c-3 -3 -12 -4 -19 -1 -8 3 -5 6 6 6 11 1 17 -2 13 -5z m40 -10 c-3 -3
-12 -4 -19 -1 -8 3 -5 6 6 6 11 1 17 -2 13 -5z m58 -14 c13 -5 14 -9 5 -9 -8
0 -24 4 -35 9 -13 5 -14 9 -5 9 8 0 24 -4 35 -9z m4392 -72 c-2 -13 -4 -5 -4
17 -1 22 1 32 4 23 2 -10 2 -28 0 -40z m-10 -75 c-3 -10 -5 -2 -5 17 0 19 2
27 5 18 2 -10 2 -26 0 -35z m-10 -55 c-3 -7 -5 -2 -5 12 0 14 2 19 5 13 2 -7
2 -19 0 -25z m-10 -60 c-3 -7 -5 -2 -5 12 0 14 2 19 5 13 2 -7 2 -19 0 -25z
m-12 -58 c-9 -41 -17 -33 -9 9 4 17 9 30 11 27 3 -2 2 -19 -2 -36z m-28 -102
c-3 -8 -6 -5 -6 6 -1 11 2 17 5 13 3 -3 4 -12 1 -19z m-37 -123 c-16 -47 -23
-40 -8 8 6 20 13 35 16 33 2 -3 -1 -21 -8 -41z m-29 -72 c-12 -20 -14 -14 -5
12 4 9 9 14 11 11 3 -2 0 -13 -6 -23z m-25 -60 c-8 -15 -15 -25 -16 -21 0 12
23 58 27 54 3 -2 -2 -17 -11 -33z m-55 -122 c-23 -45 -43 -81 -46 -81 -3 0 14
38 37 85 23 46 44 83 46 81 2 -2 -15 -40 -37 -85z m-66 -121 c-9 -16 -18 -30
-21 -30 -2 0 2 14 11 30 9 17 18 30 21 30 2 0 -2 -13 -11 -30z m-40 -67 c-38
-60 -129 -184 -144 -196 -8 -6 5 15 30 48 25 33 63 86 84 118 21 31 40 57 43
57 2 0 -4 -12 -13 -27z m-203 -270 c-28 -32 -76 -83 -108 -113 -32 -30 -11 -4
47 57 112 122 142 148 61 56z m405 -308 c32 -32 35 -40 30 -76 -10 -74 -74
-113 -140 -85 -72 30 -86 120 -26 170 45 39 92 35 136 -9z m-927 -125 c-35
-24 -54 -31 -30 -11 14 11 30 21 35 21 6 0 3 -5 -5 -10z m95 -125 c37 -60 69
-112 72 -114 8 -10 44 36 78 99 19 36 35 61 35 57 0 -17 -52 -108 -81 -142
l-31 -35 -74 121 c-41 66 -74 123 -74 126 0 10 4 4 75 -112z m-175 80 c0 -6
-117 -65 -127 -65 -4 1 21 16 57 35 72 38 70 37 70 30z m-1339 -32 c13 -16 12
-17 -3 -4 -10 7 -18 15 -18 17 0 8 8 3 21 -13z m1159 -58 c-14 -8 -29 -14 -35
-14 -5 0 1 6 15 14 14 8 30 14 35 14 6 0 -1 -6 -15 -14z m-235 -85 c-11 -5
-27 -9 -35 -9 -9 0 -8 4 5 9 11 5 27 9 35 9 9 0 8 -4 -5 -9z m-58 -16 c-3 -3
-12 -4 -19 -1 -8 3 -5 6 6 6 11 1 17 -2 13 -5z m-40 -10 c-3 -3 -12 -4 -19 -1
-8 3 -5 6 6 6 11 1 17 -2 13 -5z m-44 -11 c-7 -2 -19 -2 -25 0 -7 3 -2 5 12 5
14 0 19 -2 13 -5z m-50 -10 c-7 -2 -19 -2 -25 0 -7 3 -2 5 12 5 14 0 19 -2 13
-5z m-50 -10 c-7 -2 -21 -2 -30 0 -10 3 -4 5 12 5 17 0 24 -2 18 -5z m-65 -10
c-10 -2 -26 -2 -35 0 -10 3 -2 5 17 5 19 0 27 -2 18 -5z m-80 -10 c-10 -2 -28
-2 -40 0 -13 2 -5 4 17 4 22 1 32 -1 23 -4z m-150 -10 c-27 -2 -69 -2 -95 0
-27 2 -5 3 47 3 52 0 74 -1 48 -3z"/>
</g>
</svg>
